<?xml version="1.0" standalone="no"?>
<!DOCTYPE svg PUBLIC "-//W3C//DTD SVG 20010904//EN" "http://www.w3.org/TR/2001/REC-SVG-20010904/DTD/svg10.dtd">
<svg version="1.0" xmlns="http://www.w3.org/2000/svg"
    width="132.000000pt" height="142.000000pt" viewBox="0 0 132.000000 142.000000"
    preserveAspectRatio="xMidYMid meet">

    <g transform="translate(0.000000,142.000000) scale(0.100000,-0.100000)"
        fill="#ffffff" stroke="none">
        <path
            d="M829 1238 c-1 -101 -1 -218 1 -260 l2 -78 -65 0 -64 0 -51 78 c-27
42 -72 115 -99 163 -28 47 -66 109 -86 139 l-36 54 -20 -45 c-24 -54 -41 -181
-41 -310 l0 -97 -152 -4 c-110 -3 -161 -8 -181 -19 -27 -14 -27 -16 -10 -31
10 -8 87 -61 170 -117 84 -56 158 -111 164 -122 7 -15 10 -93 7 -246 l-3 -225
45 -39 c47 -41 77 -56 88 -44 4 4 7 110 7 236 0 126 1 229 2 229 1 0 35 -20
75 -44 254 -151 492 -291 497 -291 3 0 7 15 9 33 4 41 -17 95 -63 168 -19 29
-46 76 -60 104 l-26 51 23 32 c12 18 78 91 147 162 113 118 161 177 161 198 0
4 -66 7 -146 7 l-147 0 6 153 c4 119 9 165 26 211 20 55 20 61 5 77 -9 10 -33
22 -53 25 -20 4 -50 13 -68 21 -65 27 -63 32 -64 -169z m-295 -292 c14 -25 26
-47 26 -50 0 -3 -13 -6 -30 -6 -29 0 -30 1 -30 50 0 28 2 50 4 50 2 0 16 -20
30 -44z m495 -188 c-24 -29 -44 -55 -46 -57 -10 -14 -14 15 -8 58 l7 51 45 0
45 0 -43 -52z m-187 -24 c5 -32 7 -63 5 -68 -2 -5 -19 19 -39 55 -34 62 -35
64 -14 70 35 11 41 5 48 -57z m-93 -132 c60 -100 107 -182 105 -182 -16 0
-137 71 -234 137 l-115 79 -3 71 -3 72 43 3 c102 8 87 21 207 -180z m-379 152
l0 -25 -30 21 c-16 12 -30 23 -30 26 0 2 14 4 30 4 26 0 30 -4 30 -26z" />
    </g>
</svg>